<svg width="320" height="177" viewBox="0 0 320 177" fill="none" xmlns="http://www.w3.org/2000/svg">
<path d="M250.591 18.6238C212.258 8.35243 172.856 31.1011 162.584 69.4345C152.313 107.768 175.062 147.17 213.395 157.441C251.728 167.712 291.13 144.964 301.402 106.63C311.673 68.2971 288.924 28.8952 250.591 18.6238Z" stroke="white" stroke-width="12.3184" stroke-miterlimit="10"/>
<path d="M216.871 78.8402C228.589 81.9801 235.557 94.0496 232.417 105.768C229.925 115.071 221.833 121.327 212.767 121.989C215.583 123.594 218.65 124.841 221.895 125.711C242.7 131.285 264.096 118.932 269.67 98.1277C275.245 77.3231 262.892 55.9272 242.087 50.3526C221.283 44.7781 199.887 57.131 194.312 77.9356C193.433 81.2167 193.025 84.4696 192.971 87.7012C198.078 80.1811 207.542 76.3019 216.844 78.7945L216.871 78.8402Z" fill="white"/>
<path d="M106.604 18.6258C68.2704 8.35438 28.8685 31.1031 18.5971 69.4364C8.32575 107.77 31.0744 147.172 69.4078 157.443C107.741 167.714 147.143 144.966 157.414 106.632C167.686 68.2991 144.937 28.8972 106.604 18.6258Z" stroke="white" stroke-width="12.3184" stroke-miterlimit="10"/>
<path d="M78.4444 123.73C77.3499 123.437 76.2783 123.097 75.2323 122.715C82.4195 120.164 88.2873 114.253 90.4179 106.301C93.7761 93.7686 86.561 80.8732 74.2538 77.1013L74.2144 77.0331L73.3928 76.813C65.4456 74.6837 57.397 76.8075 51.5948 81.7506C51.7825 80.6589 52.0196 79.5652 52.3132 78.4693C57.5943 58.76 77.8645 47.057 97.5738 52.3381C117.283 57.6193 128.986 77.8894 123.705 97.5987C118.424 117.308 98.1535 129.011 78.4444 123.73Z" fill="white" stroke="white" stroke-width="4.10612"/>
</svg>
